# Blender v2.78 (sub 0) OBJ File: ''
# www.blender.org
mtllib TongsCollision.mtl
o tongs.003
v 0.106875 0.050934 0.013631
v 0.107631 0.050934 -0.011628
v 0.120756 0.053200 -0.020651
v 0.119437 0.053200 0.023423
v 0.116893 0.067634 0.023346
v 0.203975 0.060383 0.021604
v 0.203400 0.075028 0.021587
v 0.105087 0.065368 -0.011704
v 0.104331 0.065368 0.013555
v 0.118212 0.067634 -0.020727
v 0.205033 0.060383 -0.013781
v 0.215184 0.060791 -0.005648
v 0.214593 0.060791 0.014092
v 0.204458 0.075028 -0.013798
v 0.214609 0.075436 -0.005665
v 0.214018 0.075436 0.014075
vt 0.2235 0.3807
vt 0.2235 0.3807
vt 0.2235 0.3807
vt 0.2235 0.3807
vt 0.2235 0.3807
vt 0.2235 0.3807
vt 0.2235 0.3807
vt 0.2235 0.3807
vt 0.2235 0.3807
vt 0.2235 0.3807
vt 0.2235 0.3807
vt 0.2235 0.3807
vt 0.2235 0.3807
vt 0.2235 0.3807
vt 0.2235 0.3807
vt 0.2235 0.3807
vn 0.1736 -0.9848 0.0052
vn 0.0205 0.0054 0.9998
vn -0.1736 0.9848 -0.0052
vn -0.6001 -0.1016 0.7934
vn -0.5516 -0.1016 -0.8279
vn 0.0392 -0.9992 0.0012
vn 0.0802 0.0054 -0.9968
vn 0.0847 -0.9964 0.0025
vn -0.0852 0.9964 -0.0025
vn 0.9988 0.0392 0.0299
vn -0.0392 0.9992 -0.0012
vn 0.5768 0.0236 0.8166
vn 0.6245 0.0236 -0.7807
vn -0.9844 -0.1737 -0.0295
usemtl ImphenziaPixPal.006
s 1
f 1/1/1 2/2/1 3/3/1 4/4/1
f 5/5/2 4/4/2 6/6/2 7/7/2
f 8/8/3 9/9/3 5/5/3 10/10/3
f 9/9/4 1/1/4 4/4/4 5/5/4
f 2/2/5 8/8/5 10/10/5 3/3/5
f 6/6/6 11/11/6 12/12/6 13/13/6
f 3/3/7 10/10/7 14/14/7 11/11/7
f 4/4/8 3/3/8 11/11/8 6/6/8
f 10/10/9 5/5/9 7/7/9 14/14/9
f 15/15/10 16/16/10 13/13/10 12/12/10
f 14/14/11 7/7/11 16/16/11 15/15/11
f 7/7/12 6/6/12 13/13/12 16/16/12
f 11/11/13 14/14/13 15/15/13 12/12/13
f 8/8/14 2/2/14 1/1/14 9/9/14
o tongs.004
v -0.212945 -0.021345 0.002294
v -0.212326 -0.021345 -0.018392
v 0.107631 0.050934 -0.011107
v 0.106875 0.050934 0.014152
v -0.215303 -0.004451 -0.018481
v -0.215922 -0.004451 0.002205
v 0.104331 0.065368 0.014076
v 0.105087 0.065368 -0.011183
vt 0.4020 0.1494
vt 0.4020 0.1494
vt 0.4020 0.1494
vt 0.4020 0.1494
vt 0.4020 0.1494
vt 0.4020 0.1494
vt 0.4020 0.1494
vt 0.4020 0.1494
vn 0.2202 -0.9754 0.0066
vn -0.2128 0.9771 -0.0064
vn -0.0368 -0.0012 0.9993
vn 0.0230 -0.0012 -0.9997
vn -0.9844 -0.1736 -0.0295
vn 0.9844 0.1737 0.0295
usemtl ImphenziaPixPal.006
s 1
f 17/17/15 18/18/15 19/19/15 20/20/15
f 21/21/16 22/22/16 23/23/16 24/24/16
f 22/22/17 17/17/17 20/20/17 23/23/17
f 18/18/18 21/21/18 24/24/18 19/19/18
f 21/21/19 18/18/19 17/17/19 22/22/19
f 24/24/20 23/23/20 20/20/20 19/19/20
o tongs.006
v -0.215922 -0.004451 0.002305
v -0.215303 -0.004451 -0.018381
v -0.248786 -0.004321 -0.019383
v -0.249405 -0.004321 0.001303
v -0.212945 -0.021345 0.002394
v -0.212326 -0.021345 -0.018292
v -0.248786 -0.021476 -0.019383
v -0.249405 -0.021476 0.001303
vt 0.4020 0.1494
vt 0.4020 0.1494
vt 0.4020 0.1494
vt 0.4020 0.1494
vt 0.4020 0.1494
vt 0.4020 0.1494
vt 0.4020 0.1494
vt 0.4020 0.1494
vn 0.0039 1.0000 0.0001
vn 0.9844 0.1736 0.0295
vn -0.9996 0.0000 -0.0299
vn -0.0299 -0.0000 0.9996
vn 0.0299 0.0000 -0.9996
vn 0.0036 -1.0000 0.0001
usemtl ImphenziaPixPal.006
s 1
f 25/25/21 26/26/21 27/27/21 28/28/21
f 26/26/22 25/25/22 29/29/22 30/30/22
f 27/27/23 31/31/23 32/32/23 28/28/23
f 29/29/24 25/25/24 28/28/24 32/32/24
f 26/26/25 30/30/25 31/31/25 27/27/25
f 30/30/26 29/29/26 32/32/26 31/31/26
o tongs.005
v -0.212596 -0.005691 -0.017053
v -0.213122 -0.005691 0.000523
v 0.106875 -0.076701 0.013943
v 0.107631 -0.076701 -0.011316
v -0.215381 -0.018511 0.000455
v -0.214855 -0.018511 -0.017121
v 0.105087 -0.091134 -0.011392
v 0.104331 -0.091134 0.013867
vt 0.4020 0.1494
vt 0.4020 0.1494
vt 0.4020 0.1494
vt 0.4020 0.1494
vt 0.4020 0.1494
vt 0.4020 0.1494
vt 0.4020 0.1494
vt 0.4020 0.1494
vn 0.2164 0.9763 0.0065
vn -0.9844 0.1736 -0.0295
vn -0.2212 -0.9752 -0.0066
vn 0.0184 0.0020 -0.9998
vn -0.0415 0.0020 0.9991
vn 0.9844 -0.1737 0.0295
usemtl ImphenziaPixPal.006
s 1
f 33/33/27 34/34/27 35/35/27 36/36/27
f 37/37/28 34/34/28 33/33/28 38/38/28
f 37/37/29 38/38/29 39/39/29 40/40/29
f 38/38/30 33/33/30 36/36/30 39/39/30
f 34/34/31 37/37/31 40/40/31 35/35/31
f 40/40/32 39/39/32 36/36/32 35/35/32
o tongs.002
v 0.104331 -0.091134 0.013902
v 0.106875 -0.076701 0.013978
v 0.107631 -0.076701 -0.011281
v 0.105087 -0.091134 -0.011357
v 0.119437 -0.078967 0.023770
v 0.120756 -0.078967 -0.020304
v 0.118212 -0.093400 -0.020380
v 0.205033 -0.086149 -0.013434
v 0.204458 -0.100794 -0.013451
v 0.116893 -0.093400 0.023693
v 0.203974 -0.086149 0.021951
v 0.214593 -0.086558 0.014439
v 0.215184 -0.086558 -0.005301
v 0.203400 -0.100794 0.021934
v 0.214018 -0.101202 0.014422
v 0.214609 -0.101202 -0.005318
vt 0.2235 0.3807
vt 0.2235 0.3807
vt 0.2235 0.3807
vt 0.2235 0.3807
vt 0.2235 0.3807
vt 0.2235 0.3807
vt 0.2235 0.3807
vt 0.2235 0.3807
vt 0.2235 0.3807
vt 0.2235 0.3807
vt 0.2235 0.3807
vt 0.2235 0.3807
vt 0.2235 0.3807
vt 0.2235 0.3807
vt 0.2235 0.3807
vt 0.2235 0.3807
vn -0.9844 0.1737 -0.0295
vn 0.1736 0.9848 0.0052
vn 0.0802 -0.0054 -0.9968
vn -0.1736 -0.9848 -0.0052
vn -0.5516 0.1016 -0.8279
vn -0.6001 0.1016 0.7934
vn 0.0393 0.9992 0.0012
vn 0.0205 -0.0054 0.9998
vn 0.0847 0.9964 0.0025
vn -0.0852 -0.9964 -0.0025
vn 0.9988 -0.0393 0.0299
vn -0.0392 -0.9992 -0.0012
vn 0.6245 -0.0236 -0.7807
vn 0.5768 -0.0236 0.8166
usemtl ImphenziaPixPal.006
s 1
f 41/41/33 42/42/33 43/43/33 44/44/33
f 43/43/34 42/42/34 45/45/34 46/46/34
f 47/47/35 46/46/35 48/48/35 49/49/35
f 41/41/36 44/44/36 47/47/36 50/50/36
f 44/44/37 43/43/37 46/46/37 47/47/37
f 42/42/38 41/41/38 50/50/38 45/45/38
f 48/48/39 51/51/39 52/52/39 53/53/39
f 45/45/40 50/50/40 54/54/40 51/51/40
f 46/46/41 45/45/41 51/51/41 48/48/41
f 50/50/42 47/47/42 49/49/42 54/54/42
f 55/55/43 56/56/43 53/53/43 52/52/43
f 54/54/44 49/49/44 56/56/44 55/55/44
f 49/49/45 48/48/45 53/53/45 56/56/45
f 51/51/46 54/54/46 55/55/46 52/52/46
