# Blender v2.78 (sub 0) OBJ File: 'toprocess3d.blend'
# www.blender.org
mtllib carpet.mtl
o rugSquare.002
v 0.452163 0.460000 -0.005000
v 0.452163 -0.460000 -0.005000
v -0.452163 -0.460000 -0.005000
v -0.452163 0.460000 -0.005000
v 0.452163 -0.460000 0.005000
v -0.452163 -0.460000 0.005000
v 0.452163 0.460000 0.005000
v -0.452163 0.460000 0.005000
vt 0.0000 0.0000
vt 0.0000 36.2205
vt -35.6034 36.2205
vt -35.6034 0.0000
vt -35.6034 0.0000
vt 0.0000 0.0000
vt 0.0000 0.3937
vt -35.6034 0.3937
vt 0.0000 0.3937
vt -36.2205 0.3937
vt -36.2205 0.0000
vt 35.6034 0.0000
vt 35.6034 0.3937
vt 0.0000 0.3937
vt 0.0000 0.0000
vt 36.2205 0.0000
vt 36.2205 0.3937
vn 0.0000 0.0000 -1.0000
vn 0.0000 -1.0000 0.0000
vn 1.0000 0.0000 0.0000
vn 0.0000 1.0000 0.0000
vn -1.0000 0.0000 0.0000
vn 0.0000 -0.0000 1.0000
usemtl carpet.004
s 1
f 1/1/1 2/2/1 3/3/1
f 3/3/1 4/4/1 1/1/1
f 3/5/2 2/6/2 5/7/2
f 5/7/2 6/8/2 3/5/2
f 1/1/3 7/9/3 5/10/3
f 5/10/3 2/11/3 1/1/3
f 1/1/4 4/12/4 8/13/4
f 8/13/4 7/9/4 1/1/4
f 8/14/5 4/15/5 3/16/5
f 3/16/5 6/17/5 8/14/5
f 6/8/6 5/7/6 8/13/6
f 8/13/6 5/10/6 7/9/6
