# Blender v2.78 (sub 0) OBJ File: 'toprocess3d.blend'
# www.blender.org
mtllib leg.mtl
o stoolBar.009
v 0.010000 0.010000 0.177500
v 0.010000 -0.010000 0.177500
v 0.010000 0.010000 -0.177500
v 0.010000 -0.010000 -0.177500
v -0.010000 -0.010000 0.177500
v -0.010000 -0.010000 -0.177500
v -0.010000 0.010000 -0.177500
v -0.010000 0.010000 0.177500
vt 0.0000 0.0000
vt -7.0657 2.8003
vt -7.0657 2.0129
vt 7.0657 0.0000
vt 7.8531 13.9764
vt 0.0000 0.0000
vt 0.0000 0.0000
vt -7.8531 2.8003
vt -7.8531 2.0129
vt 2.0129 13.9764
vt 2.0129 0.0000
vt 2.8003 0.0000
vt 7.8531 0.0000
vt 0.0000 0.0000
vn 1.0000 -0.0000 0.0000
vn 0.0000 1.0000 0.0000
vn 0.0000 0.0000 1.0000
vn 0.0000 0.0000 -1.0000
vn -1.0000 -0.0000 0.0000
vn -0.7071 -0.7071 -0.0000
vn 0.0000 -1.0000 -0.0000
usemtl wood.004
s off
f 2/1/1 4/2/1 3/3/1
f 3/4/2 8/5/2 1/6/2
f 8/5/3 2/1/3 1/6/3
f 2/1/1 3/7/1 1/6/1
s 1
f 3/3/4 4/2/4 6/8/4
f 6/8/4 7/9/4 3/3/4
f 8/10/5 7/11/5 6/12/6
f 3/4/2 7/13/2 8/5/2
f 2/1/3 8/5/3 5/14/3
f 5/14/6 6/12/6 4/2/7
f 8/10/5 6/12/6 5/14/6
f 5/14/6 4/2/7 2/1/7
