# Blender v2.78 (sub 0) OBJ File: 'toprocess3d.blend'
# www.blender.org
mtllib strut.mtl
o stoolBar.009_stoolBar.011
v 0.010000 0.043812 0.010000
v 0.010000 0.043812 -0.010000
v 0.010000 -0.043812 0.010000
v 0.010000 -0.043812 -0.010000
v -0.010000 -0.043812 -0.010000
v -0.010000 0.043812 -0.010000
v -0.010000 0.043812 0.010000
v -0.010000 -0.043812 0.010000
vt -2.8003 4.9213
vt -2.8003 5.7087
vt -6.2500 5.7087
vt -6.2500 4.9213
vt -7.0657 2.8003
vt -7.0657 6.2500
vt -7.8531 6.2500
vt -7.8531 2.8003
vt 7.8531 6.2500
vt 7.0657 6.2500
vt 7.0657 2.8003
vt 7.8531 2.8003
vt 2.8003 5.7087
vt 2.8003 4.9213
vt 6.2500 4.9213
vt 6.2500 5.7087
vn 1.0000 0.0000 0.0000
vn 0.0000 0.0000 -1.0000
vn 0.0000 0.0000 1.0000
vn -0.7071 0.7071 0.0000
vn -0.7071 -0.7071 0.0000
vn 0.0000 1.0000 0.0000
vn 0.0000 -1.0000 0.0000
usemtl wood.004
s 1
f 2/1/1 1/2/1 3/3/1
f 3/3/1 4/4/1 2/1/1
f 2/5/2 4/6/2 5/7/2
f 5/7/2 6/8/2 2/5/2
f 8/9/3 3/10/3 1/11/3
f 1/11/3 7/12/3 8/9/3
f 7/13/4 6/14/4 5/15/5
f 5/15/5 8/16/5 7/13/4
f 6/14/4 7/13/4 2/1/6
f 2/1/6 7/12/4 1/11/6
f 3/10/7 8/9/5 5/15/5
f 5/7/5 4/6/7 3/3/7
