# Blender v2.78 (sub 0) OBJ File: 'toprocess3d.blend'
# www.blender.org
mtllib frame_top.mtl
o wallDoorwayWide.002_wallDoorwayWide.008
v 0.457650 -0.044550 0.014175
v 0.457650 -0.044550 -0.014175
v -0.457650 -0.044550 -0.014175
v -0.457650 -0.044550 0.014175
v 0.457650 0.044550 -0.014175
v -0.457650 0.044550 -0.014175
v -0.457650 0.044550 0.014175
v 0.457650 0.044550 0.014175
vt -1.6673 39.7453
vt -36.5866 38.6292
vt -2.7835 38.6292
vt -37.7028 39.7453
vt 1.6673 39.7453
vt 37.7028 39.7453
vt -2.7835 -0.7697
vt -2.7835 2.7382
vt -36.5866 2.7382
vt -36.5866 -0.7697
vt 2.7835 38.6292
vt 36.5866 38.6292
vn 0.5773 -0.5774 0.5774
vn -0.7071 -0.7071 0.0000
vn 0.7071 -0.7071 0.0000
vn -0.5773 -0.5774 0.5774
vn 0.5773 0.5773 0.5774
vn -0.5773 0.5774 0.5774
vn 0.0000 0.0000 -1.0000
vn 0.7071 0.7071 0.0000
vn -0.7071 0.7071 0.0000
usemtl wood.012
s 1
f 1/1/1 3/2/2 2/3/3
f 3/2/2 1/1/1 4/4/4
f 8/5/5 7/6/6 1/1/1
f 5/7/7 2/8/7 3/9/7
f 3/9/7 6/10/7 5/7/7
f 7/6/6 5/11/8 6/12/9
f 5/11/8 7/6/6 8/5/5
f 4/4/4 1/1/1 7/6/6
f 2/3/3 8/5/5 1/1/1
f 5/11/8 8/5/5 2/3/3
f 6/12/9 3/9/2 7/6/6
f 4/4/4 7/6/6 3/2/2
