# Blender v2.78 (sub 0) OBJ File: 'toprocess3d.blend'
# www.blender.org
mtllib tape.mtl
o cardboardBoxClosed.006_cardboardBoxClosed.007
v -0.017407 0.108795 0.030463
v -0.017407 0.108795 -0.030463
v 0.017407 0.108795 -0.030463
v 0.017407 0.108795 0.030463
v 0.017407 -0.108795 -0.030463
v 0.017407 -0.108795 0.030463
v -0.017407 -0.108795 0.030463
v -0.017407 -0.108795 -0.030463
vt 3.5138 0.0000
vt 4.8524 0.0000
vt 4.8524 2.3425
vt 3.5138 2.3425
vt -4.8524 8.3661
vt -4.8524 -0.0000
vt -3.5138 -0.0000
vt -3.5138 8.3661
vt 3.5138 0.0000
vt 4.8524 2.3425
vt 4.8524 0.0000
vt 3.5138 2.3425
vt 0.0000 0.0000
vt 0.0000 0.0000
vn 0.5774 0.5774 -0.5774
vn -0.5774 0.5774 -0.5774
vn -0.5774 0.5774 0.5774
vn 0.5774 0.5774 0.5774
vn -0.7053 -0.7053 -0.0712
vn 0.5774 -0.5774 -0.5774
vn 0.0000 0.0000 -1.0000
vn -0.5774 -0.5774 0.5774
vn 0.5774 -0.5774 0.5774
usemtl woodDark.001
s 1
f 3/1/1 2/2/2 1/3/3
f 1/3/3 4/4/4 3/1/1
f 8/5/5 2/6/2 3/7/1
f 3/7/1 5/8/6 8/5/7
f 5/9/6 7/10/8 8/11/5
f 7/10/8 5/9/6 6/12/9
f 8/11/5 7/10/8 1/13/3
f 8/11/5 1/13/3 2/2/2
f 3/1/1 4/4/4 6/14/9
f 5/8/6 3/7/1 6/14/9
f 4/4/4 1/3/3 6/14/9
f 6/14/9 1/3/3 7/10/8
