# Blender v2.78 (sub 0) OBJ File: 'toprocess3d.blend'
# www.blender.org
mtllib pole.mtl
o lampRoundTable.003
v 0.007259 0.007259 -0.097500
v -0.007259 0.007259 -0.097500
v -0.007259 -0.007259 -0.097500
v 0.007259 -0.007259 -0.097500
v 0.009073 -0.009073 0.097500
v 0.009073 0.009073 0.097500
v -0.009073 0.009073 0.097500
v -0.009073 -0.009073 0.097500
vt -2.0764 0.7680
vt -2.6480 0.8120
vt 2.0764 0.8120
vt -2.6480 0.7680
vt 2.0050 2.7194
vt 2.0050 2.0050
vt 2.7194 2.0050
vt 2.7194 2.7194
vt -2.0764 0.8120
vt -2.0050 8.4895
vt -2.7194 8.4895
vt 2.0764 0.7680
vt 2.6480 0.7680
vt 2.7194 8.4455
vt 2.0050 8.4455
vt -2.0050 8.4455
vt -2.7194 8.4455
vt 2.7194 8.4895
vt 2.0050 8.4895
vt 2.6480 0.8120
vn 0.0000 0.0000 -1.0000
vn 0.0000 0.0000 1.0000
vn 0.0000 -1.0000 -0.0093
vn 0.0000 1.0000 -0.0093
vn 1.0000 0.0000 -0.0093
vn -1.0000 0.0000 -0.0093
usemtl metal.004
s 1
f 1/1/1 3/2/1 2/3/1
f 4/4/1 3/2/1 1/1/1
f 5/5/2 6/6/2 7/7/2
f 7/7/2 8/8/2 5/5/2
f 3/2/3 4/9/3 5/10/3
f 5/10/3 8/11/3 3/2/3
f 1/12/4 2/13/4 7/14/4
f 7/14/4 6/15/4 1/12/4
f 1/1/5 6/16/5 5/17/5
f 5/17/5 4/4/5 1/1/5
f 8/18/6 7/19/6 2/3/6
f 2/3/6 3/20/6 8/18/6
