# Blender v2.78 (sub 0) OBJ File: ''
# www.blender.org
mtllib pillow.mtl
o pillow
v -0.085100 -0.085115 0.022944
v -0.085100 0.085085 0.023056
v -0.085100 0.115000 0.000076
v -0.085100 0.085115 -0.022944
v -0.085100 -0.115000 -0.000076
v -0.085100 -0.085085 -0.023056
v -0.115000 -0.085100 -0.000056
v 0.085100 0.115000 0.000076
v 0.115000 0.085100 0.000056
v 0.085100 0.085115 -0.022944
v -0.115000 0.085100 0.000056
v 0.115000 -0.085100 -0.000056
v 0.085100 -0.115000 -0.000076
v 0.085100 0.085085 0.023056
v 0.085100 -0.085115 0.022944
v 0.085100 -0.085085 -0.023056
vt 1.7343 7.8439
vt -0.0000 1.3714
vt 0.5700 0.0000
vt 1.7493 0.9027
vt 2.9136 8.7466
vt 3.4836 7.3752
vt 7.6253 4.0412
vt 6.7901 2.8132
vt 8.2406 2.4944
vt -1.2348 -0.2924
vt -0.6194 1.2545
vt -2.0700 0.9356
vt -6.5385 2.4105
vt -5.0728 2.1710
vt -3.9924 8.7841
vt -5.4581 9.0236
vt -9.0551 1.3247
vt -7.8780 0.1475
vt -1.1772 0.1475
vt -0.0000 1.3247
vt -9.0551 8.0255
vt -0.0000 8.0255
vt -7.8780 9.2026
vt -1.1772 9.2026
vt 1.1772 1.3247
vt 7.8780 1.3247
vt 7.8780 8.0255
vt 1.1772 8.0255
vt -0.5700 0.0000
vt 0.0000 1.3714
vt -1.7343 7.8439
vt -1.7493 0.9027
vt -2.9136 8.7466
vt -3.4836 7.3752
vt 1.1772 0.3549
vt -0.0000 -0.5506
vt 1.1772 -1.4561
vt 7.8780 -1.4561
vt 7.8780 0.3549
vt 9.0551 -0.5506
vt -5.1582 4.0555
vt -4.3230 5.2836
vt -5.7735 5.6024
vt -1.6253 7.8663
vt -0.5449 1.2532
vt 0.9208 1.4927
vt -0.1596 8.1058
vt -2.9018 6.2279
vt -1.4375 6.4759
vt -2.5878 7.6795
vt -1.1772 -1.4561
vt 0.0000 -0.5506
vt -1.1772 0.3549
vt -7.8780 -1.4561
vt -7.8780 0.3549
vt -9.0551 -0.5506
vt -3.0910 7.6269
vt -2.0106 1.0138
vt -7.8780 8.0255
vt -7.8780 1.3247
vt -1.1772 1.3247
vt -1.1772 8.0255
vt 1.1772 -0.2188
vt 7.8780 -0.2188
vt 7.8780 1.2664
vt 1.1772 1.2664
vt -7.8780 0.4526
vt -1.1772 0.4526
vt -1.1772 1.9378
vt -7.8780 1.9378
vt 6.8882 1.2665
vt 8.0385 2.4700
vt 6.5742 2.7181
vt 6.1626 0.3355
vt 7.6283 0.0960
vt 8.7087 6.7091
vt 7.2429 6.9486
vt 7.8780 7.6299
vt 1.1772 7.6299
vt 1.1772 6.1448
vt 7.8780 6.1448
vt -1.2324 8.3892
vt -1.8477 6.8423
vt -0.3972 7.1611
vt -0.4819 0.8351
vt 0.6683 -0.3684
vt 0.9823 1.0832
vt -7.8780 6.9585
vt -7.8780 5.4734
vt -1.1772 5.4734
vt -1.1772 6.9585
vt -6.1190 4.8410
vt -4.6547 4.5929
vt -4.9688 6.0445
vn -1.0000 0.0000 0.0000
vn -0.5206 -0.5210 0.6764
vn 0.5206 0.5210 -0.6764
vn -0.6097 0.0005 -0.7926
vn 0.0000 0.0007 -1.0000
vn 0.0000 -0.0007 1.0000
vn 1.0000 0.0000 0.0000
vn -0.0000 1.0000 0.0007
vn -0.5206 0.5210 -0.6764
vn 0.6097 -0.0005 0.7926
vn 0.5206 -0.5201 -0.6771
vn -0.0000 -1.0000 -0.0007
vn 0.6097 0.0005 -0.7926
vn 0.0000 0.6092 0.7930
vn 0.0000 0.6102 -0.7922
vn -0.5206 0.5201 0.6771
vn -0.6097 -0.0005 0.7926
vn 0.0000 -0.6102 0.7922
vn 0.5206 -0.5210 0.6764
vn 0.5206 0.5201 0.6771
vn 0.0000 -0.6092 -0.7930
vn -0.5206 -0.5201 -0.6771
usemtl carpet.002
s 1
f 1/1/1 2/2/1 3/3/1
f 3/3/1 4/4/1 1/1/1
f 4/4/1 5/5/1 1/1/1
f 4/4/1 6/6/1 5/5/1
f 5/7/2 1/8/2 7/9/2
f 8/10/3 9/11/3 10/12/3
f 11/13/4 4/14/4 6/15/4
f 6/15/4 7/16/4 11/13/4
f 11/17/5 3/18/5 8/19/5
f 8/19/5 9/20/5 11/17/5
f 9/20/5 7/21/5 11/17/5
f 9/20/5 12/22/5 7/21/5
f 12/22/5 5/23/5 7/21/5
f 12/22/5 13/24/5 5/23/5
f 14/25/6 2/26/6 1/27/6
f 1/27/6 15/28/6 14/25/6
f 8/29/7 14/30/7 15/31/7
f 15/31/7 10/32/7 8/29/7
f 15/31/7 13/33/7 10/32/7
f 13/33/7 16/34/7 10/32/7
f 14/35/8 9/36/8 10/37/8
f 10/37/8 4/38/8 14/35/8
f 4/38/8 2/39/8 14/35/8
f 4/38/8 11/40/8 2/39/8
f 3/41/9 4/42/9 11/43/9
f 12/44/10 9/45/10 14/46/10
f 14/46/10 15/47/10 12/44/10
f 16/48/11 12/49/11 13/50/11
f 16/51/12 12/52/12 15/53/12
f 15/53/12 6/54/12 16/51/12
f 15/53/12 1/55/12 6/54/12
f 1/55/12 7/56/12 6/54/12
f 16/57/13 10/58/13 9/45/13
f 9/45/13 12/44/13 16/57/13
f 6/59/5 4/60/5 10/61/5
f 10/61/5 16/62/5 6/59/5
f 8/63/14 3/64/14 2/65/14
f 2/65/14 14/66/14 8/63/14
f 3/67/15 8/68/15 10/69/15
f 10/69/15 4/70/15 3/67/15
f 3/71/16 11/72/16 2/73/16
f 2/74/17 11/75/17 7/76/17
f 7/76/17 1/77/17 2/74/17
f 5/78/18 13/79/18 15/80/18
f 15/80/18 1/81/18 5/78/18
f 13/82/19 12/83/19 15/84/19
f 9/85/20 8/86/20 14/87/20
f 5/88/21 6/89/21 16/90/21
f 16/90/21 13/91/21 5/88/21
f 7/92/22 6/93/22 5/94/22
