# Blender v2.78 (sub 0) OBJ File: ''
# www.blender.org
mtllib GrillForkVisual.mtl
o fork.006
v -0.220803 0.039944 -0.015777
v -0.220803 0.039944 0.015777
v -0.205946 0.024942 0.015777
v -0.205946 0.024942 -0.015777
v -0.234746 0.024942 0.015777
v -0.234746 0.024942 -0.015777
v -0.220803 -0.039945 -0.015777
v -0.205946 -0.024942 -0.015777
v -0.205946 -0.024942 0.015777
v -0.220803 -0.039945 0.015777
v -0.234746 -0.024942 -0.015777
v -0.234746 -0.024942 0.015777
v -0.220803 0.039944 0.015777
v -0.220803 0.039944 -0.015777
v -0.285555 0.021842 -0.015777
v -0.285555 0.021842 0.015777
v -0.234746 0.024942 0.015777
v -0.234746 0.024942 -0.015777
v -0.205946 0.024942 -0.015777
v -0.205946 0.024942 0.015777
v -0.018679 0.015777 0.015777
v -0.018679 0.015777 -0.015777
v -0.191546 0.000000 0.015777
v -0.191546 0.000000 -0.015777
v -0.018679 -0.015777 0.015777
v -0.220803 -0.039945 0.015777
v -0.220803 -0.039945 -0.015777
v -0.018679 -0.015777 -0.015777
v -0.205946 -0.024942 0.015777
v -0.205946 -0.024942 -0.015777
v -0.249146 0.000000 0.015777
v -0.249146 0.000000 -0.015777
v -0.285555 -0.021842 -0.015777
v -0.285555 -0.021842 0.015777
v -0.234746 -0.024942 0.015777
v -0.234746 -0.024942 -0.015777
v -0.018679 0.008623 -0.008623
v -0.018679 0.008623 0.008623
v 0.005136 0.008097 0.008097
v 0.005136 0.008097 -0.008096
v 0.005136 -0.008097 0.008097
v 0.222724 -0.010628 0.005972
v 0.222724 0.010628 0.005972
v -0.018679 -0.008623 0.008623
v -0.018679 -0.008623 -0.008623
v 0.005136 -0.008097 -0.008096
v 0.222724 0.010628 -0.005971
v 0.222724 -0.010628 -0.005971
v 0.252463 -0.007131 -0.004261
v 0.252463 -0.007131 0.004261
v 0.252463 0.005253 -0.004261
v 0.252463 0.005253 0.004261
v -0.234746 0.024942 -0.015777
v -0.234746 0.024942 0.015777
v -0.249146 0.000000 0.015777
v -0.249146 0.000000 -0.015777
v -0.285555 0.021842 0.015777
v -0.285555 0.021842 -0.015777
v -0.220803 -0.039945 -0.015777
v -0.220803 -0.039945 0.015777
v -0.285555 -0.021842 0.015777
v -0.285555 -0.021842 -0.015777
v -0.234746 -0.024942 0.015777
v -0.234746 -0.024942 -0.015777
v -0.018679 -0.015777 0.015777
v -0.018679 -0.015777 -0.015777
v -0.018679 0.015777 -0.015777
v -0.018679 0.015777 0.015777
v -0.191546 0.000000 0.015777
v -0.191546 0.000000 -0.015777
v -0.018679 0.015777 -0.015777
v -0.220803 0.039944 -0.015777
v -0.220803 0.039944 0.015777
v -0.018679 0.015777 0.015777
v -0.205946 0.024942 -0.015777
v -0.205946 0.024942 0.015777
v 0.222724 0.010628 0.005972
v 0.252463 0.005253 0.004261
v 0.252463 0.024831 0.004261
v 0.222724 0.010628 -0.005971
v 0.252463 0.024831 -0.004261
v 0.252463 0.005253 -0.004261
v 0.396885 0.018929 0.001266
v 0.396885 0.018929 -0.001266
v 0.396885 0.024748 -0.001266
v 0.396885 0.024748 0.001266
v -0.018679 -0.015777 -0.015777
v -0.191546 0.000000 -0.015777
v -0.191546 0.000000 0.015777
v -0.018679 -0.015777 0.015777
v -0.205946 -0.024942 0.015777
v -0.205946 -0.024942 -0.015777
v 0.222724 -0.010628 -0.005971
v 0.252463 -0.007131 -0.004261
v 0.252463 -0.024831 -0.004261
v 0.252463 -0.007131 0.004261
v 0.396885 -0.018928 0.001266
v 0.396885 -0.018928 -0.001266
v 0.222724 -0.010628 0.005972
v 0.252463 -0.024831 0.004261
v 0.396885 -0.024188 0.001266
v 0.396885 -0.024188 -0.001266
v -0.285555 -0.021842 0.015777
v -0.285555 0.021842 0.015777
v -0.285555 0.021842 -0.015777
v -0.285555 -0.021842 -0.015777
v -0.249146 0.000000 0.015777
v -0.249146 0.000000 -0.015777
vt 0.2235 0.3807
vt 0.0000 0.0000
vt 0.6667 0.7583
vt 0.0000 0.0000
vt 0.6667 0.7504
vt 1.0000 0.7583
vt 1.0000 0.7504
vt 0.2235 0.3807
vt 0.5000 0.7504
vt 0.5000 0.7583
vt 0.2235 0.3807
vt 0.1667 0.7504
vt 0.1667 0.7583
vt 0.2235 0.3807
vt 0.2235 0.3807
vt 0.2235 0.3807
vt 0.2235 0.3807
vt 1.0000 0.7583
vt 1.0000 0.7504
vt 0.0000 0.0000
vt 0.6667 0.7504
vt 0.6667 0.7583
vt 0.0000 0.0000
vt 0.2235 0.3807
vt 0.6667 0.7583
vt 0.6667 0.7504
vt 0.2235 0.3807
vt 0.2235 0.3807
vt 0.2235 0.3807
vt 0.2235 0.3807
vt 0.5000 0.7583
vt 0.5000 0.7504
vt 0.0000 0.0000
vt 0.0000 0.0000
vt 0.1667 0.7583
vt 0.1667 0.7504
vt 0.2235 0.3807
vt 0.2235 0.3807
vt 0.1667 0.7583
vt 0.1667 0.7504
vt 0.4020 0.1494
vt 0.4020 0.1494
vt 0.4020 0.1494
vt 0.4020 0.1494
vt 0.4020 0.1494
vt 0.4020 0.1494
vt 0.4020 0.1494
vt 0.4020 0.1494
vt 0.4020 0.1494
vt 0.4020 0.1494
vt 0.4020 0.1494
vt 0.4020 0.1494
vt 0.4020 0.1494
vt 0.4020 0.1494
vt 0.4020 0.1494
vt 0.4020 0.1494
vt 1.0000 0.7504
vt 1.0000 0.7583
vt 1.0000 0.7583
vt 1.0000 0.7504
vt 0.2235 0.3807
vt 0.2235 0.3807
vt 0.2235 0.3807
vt 0.2235 0.3807
vt 0.2235 0.3807
vt 0.2235 0.3807
vt 0.1667 0.7583
vt 0.1667 0.7504
vt 0.2235 0.3807
vt 0.2235 0.3807
vt 0.2235 0.3807
vt 0.2235 0.3807
vt 0.0000 0.0000
vt 0.5000 0.7583
vt 0.5000 0.7504
vt 0.0000 0.0000
vt 0.2235 0.3807
vt 0.2235 0.3807
vt 0.2235 0.3807
vt 0.2235 0.3807
vt 0.0000 0.0000
vt 0.6667 0.7583
vt 0.4020 0.1494
vt 0.4020 0.1494
vt 0.4020 0.1494
vt 0.4020 0.1494
vt 0.4020 0.1494
vt 0.4020 0.1494
vt 0.4020 0.1494
vt 0.4020 0.1494
vt 0.4020 0.1494
vt 0.4020 0.1494
vt 0.0000 0.0000
vt 0.5000 0.7504
vt 0.5000 0.7583
vt 0.0000 0.0000
vt 0.5000 0.7583
vt 0.5000 0.7504
vt 0.4020 0.1494
vt 0.4020 0.1494
vt 0.4020 0.1494
vt 0.4020 0.1494
vt 0.4020 0.1494
vt 0.4020 0.1494
vt 0.4020 0.1494
vt 0.4020 0.1494
vt 0.4020 0.1494
vt 0.4020 0.1494
vt 0.2235 0.3807
vt 0.2235 0.3807
vt 0.2235 0.3807
vt 0.2235 0.3807
vt 1.0000 0.7583
vt 1.0000 0.7504
vn 0.7105 0.7037 0.0000
vn 0.0000 -1.0000 0.0000
vn -0.7325 0.6808 0.0000
vn 0.0000 0.0000 -1.0000
vn 0.0000 0.0000 1.0000
vn 0.7106 -0.7036 0.0000
vn 0.0000 1.0000 0.0000
vn -0.7325 -0.6808 0.0000
vn -0.2692 0.9631 0.0000
vn 0.0609 -0.9981 0.0000
vn 0.7325 -0.6808 0.0000
vn 0.0489 0.9988 0.0000
vn 0.0909 -0.9959 0.0000
vn -0.8660 -0.5000 0.0000
vn 0.1187 -0.9929 0.0000
vn -0.7106 0.7036 0.0000
vn -0.0489 0.9988 0.0000
vn -0.5144 0.8575 0.0000
vn -0.0609 -0.9981 0.0000
vn 0.8660 0.5000 0.0000
vn 0.0221 0.9998 0.0000
vn 0.0159 0.0000 0.9999
vn 0.0098 0.0000 1.0000
vn 0.0221 -0.9998 0.0000
vn 0.0221 0.0000 -0.9998
vn 0.0160 0.0000 -0.9999
vn 0.0221 0.0000 0.9998
vn -0.0116 0.9999 0.0000
vn -0.0116 -0.9999 0.0000
vn 0.0098 0.0000 -1.0000
vn -1.0000 0.0000 0.0000
vn 0.1168 -0.9932 0.0000
vn 0.0574 0.0000 -0.9984
vn 1.0000 0.0000 0.0000
vn 0.0574 0.0000 0.9983
vn 0.1779 0.9841 0.0000
vn 0.8660 -0.5000 0.0000
vn -0.5144 -0.8575 0.0000
vn -0.0609 0.9981 0.0000
vn -0.2692 -0.9631 0.0000
vn 0.0609 0.9981 0.0000
vn 0.7325 0.6808 0.0000
vn -0.0909 -0.9959 0.0000
vn -0.0909 0.9959 0.0000
vn 0.1187 0.9929 0.0000
vn -0.7105 -0.7037 0.0000
vn -0.0489 -0.9988 0.0000
vn -0.4310 0.9024 0.0000
vn -0.1779 -0.9841 0.0000
vn 0.0207 0.0000 0.9998
vn 0.0207 0.0000 -0.9998
vn 0.0006 1.0000 0.0000
vn 0.0943 -0.9955 0.0000
vn 0.0909 0.9959 0.0000
vn -0.8660 0.5000 0.0000
vn 0.0489 -0.9988 0.0000
vn 0.0814 0.9967 0.0000
vn -0.4310 -0.9024 0.0000
vn -0.1168 0.9932 0.0000
vn 0.0045 -1.0000 0.0000
vn 0.5144 -0.8575 0.0000
vn 0.5144 0.8575 0.0000
usemtl brown.001
s 1
f 1/1/1 2/2/1 3/3/1 4/4/1
f 4/5/2 3/3/2 5/6/2 6/7/2
f 1/1/3 6/7/3 5/6/3 2/2/3
f 4/4/4 6/7/4 1/1/4
f 3/3/5 2/2/5 5/6/5
f 7/8/6 8/9/6 9/10/6 10/11/6
f 8/9/7 11/12/7 12/13/7 9/10/7
f 7/8/8 10/11/8 12/13/8 11/12/8
f 8/9/4 7/8/4 11/12/4
f 9/10/5 12/13/5 10/11/5
f 13/14/9 14/15/9 15/16/9 16/17/9
f 17/18/10 16/17/10 15/16/10 18/19/10
f 13/20/5 16/17/5 17/18/5
f 14/15/4 18/19/4 15/16/4
f 14/15/11 13/20/11 17/18/11 18/19/11
f 19/21/12 20/22/12 21/23/12 22/24/12
f 22/24/13 21/23/13 23/25/13 24/26/13
f 23/25/14 20/22/14 19/21/14 24/26/14
f 24/26/4 19/21/4 22/24/4
f 20/22/5 23/25/5 21/23/5
f 25/27/15 26/28/15 27/29/15 28/30/15
f 27/29/16 26/28/16 29/31/16 30/32/16
f 28/33/4 27/29/4 30/32/4
f 25/34/5 29/31/5 26/28/5
f 28/33/17 30/32/17 29/31/17 25/34/17
f 31/35/18 32/36/18 33/37/18 34/38/18
f 35/39/19 34/38/19 33/37/19 36/40/19
f 32/36/20 31/35/20 35/39/20 36/40/20
f 35/39/5 31/35/5 34/38/5
f 36/40/4 33/37/4 32/36/4
f 37/41/21 38/42/21 39/43/21 40/44/21
f 39/43/22 41/45/22 42/46/23 43/47/23
f 44/48/24 45/49/24 46/50/24 41/45/24
f 45/49/25 37/41/25 40/44/26 46/50/26
f 38/42/27 44/48/27 41/45/22 39/43/22
f 40/44/28 39/43/28 43/47/28 47/51/28
f 41/45/29 46/50/29 48/52/29 42/46/29
f 46/50/26 40/44/26 47/51/30 48/52/30
f 44/48/31 38/42/31 37/41/31 45/49/31
f 48/52/32 49/53/32 50/54/32 42/46/32
f 49/53/33 48/52/33 47/51/33 51/55/33
f 50/54/34 49/53/34 51/55/34 52/56/34
f 52/56/35 43/47/35 42/46/35 50/54/35
f 47/51/36 43/47/36 52/56/36 51/55/36
f 53/57/37 54/58/37 55/59/37 56/60/37
f 55/59/38 57/61/38 58/62/38 56/60/38
f 54/58/39 53/57/39 58/62/39 57/61/39
f 54/58/5 57/61/5 55/59/5
f 53/57/4 56/60/4 58/62/4
f 59/63/40 60/64/40 61/65/40 62/66/40
f 63/67/41 64/68/41 62/66/41 61/65/41
f 60/64/5 63/67/5 61/65/5
f 59/63/4 62/66/4 64/68/4
f 59/63/42 64/68/42 63/67/42 60/64/42
f 65/69/34 66/70/34 67/71/34 68/72/34
f 66/70/43 65/73/43 69/74/43 70/75/43
f 67/71/44 70/75/44 69/74/44 68/72/44
f 65/73/5 68/76/5 69/74/5
f 67/71/4 66/70/4 70/75/4
f 71/77/45 72/78/45 73/79/45 74/80/45
f 72/78/46 75/81/46 76/82/46 73/79/46
f 71/77/4 75/81/4 72/78/4
f 75/81/47 71/77/47 74/80/47 76/82/47
f 74/80/5 73/79/5 76/82/5
f 77/83/35 78/84/35 79/85/35
f 80/86/48 77/83/48 79/85/48 81/87/48
f 80/86/49 82/88/49 78/84/49 77/83/49
f 82/88/33 80/86/33 81/87/33
f 83/89/34 84/90/34 85/91/34 86/92/34
f 79/85/50 78/84/50 83/89/50 86/92/50
f 82/88/51 81/87/51 85/91/51 84/90/51
f 81/87/52 79/85/52 86/92/52 85/91/52
f 78/84/53 82/88/53 84/90/53 83/89/53
f 87/93/54 88/94/54 89/95/54 90/96/54
f 91/97/55 89/95/55 88/94/55 92/98/55
f 87/93/56 90/96/56 91/97/56 92/98/56
f 88/94/4 87/93/4 92/98/4
f 90/96/5 89/95/5 91/97/5
f 93/99/33 94/100/33 95/101/33
f 94/100/57 96/102/57 97/103/57 98/104/57
f 99/105/58 93/99/58 95/101/58 100/106/58
f 101/107/34 102/108/34 98/104/34 97/103/34
f 96/102/35 99/105/35 100/106/35
f 95/101/51 94/100/51 98/104/51 102/108/51
f 93/99/59 99/105/59 96/102/59 94/100/59
f 100/106/60 95/101/60 102/108/60 101/107/60
f 96/102/50 100/106/50 101/107/50 97/103/50
f 103/109/31 104/110/31 105/111/31 106/112/31
f 107/113/61 103/109/61 106/112/61 108/114/61
f 104/110/5 103/109/5 107/113/5
f 107/113/62 108/114/62 105/111/62 104/110/62
f 105/111/4 108/114/4 106/112/4
