# Blender 4.0.2
# www.blender.org
mtllib HookCollision.mtl
o meatHook.001
v -0.148686 0.007022 -0.012995
v -0.148686 0.007022 0.012995
v -0.143185 -0.017549 -0.012995
v -0.143185 -0.017549 0.012995
v 0.145396 0.007022 -0.012995
v 0.145396 0.007022 0.012995
v 0.145396 -0.018968 -0.012995
v 0.145396 -0.018968 0.012995
vn -0.0000 -0.0000 -1.0000
vn -0.0000 -0.0000 1.0000
vn -0.0049 -1.0000 -0.0000
vn -0.0000 1.0000 -0.0000
vn -0.9758 -0.2185 -0.0000
vn 1.0000 -0.0000 -0.0000
vt 0.402039 0.149390
s 0
usemtl ImphenziaPixPal
f 3/1/1 1/1/1 5/1/1 7/1/1
f 2/1/2 4/1/2 8/1/2 6/1/2
f 4/1/3 3/1/3 7/1/3 8/1/3
f 1/1/4 2/1/4 6/1/4 5/1/4
f 2/1/5 1/1/5 3/1/5 4/1/5
f 6/1/6 8/1/6 7/1/6 5/1/6
o meatHook.003
v -0.148686 0.007022 -0.012995
v -0.148686 0.007022 0.012995
v -0.143185 -0.017549 -0.012995
v -0.143185 -0.017549 0.012995
v -0.191889 -0.027885 -0.012995
v -0.191889 -0.027885 0.012995
v -0.170764 -0.039277 -0.012995
v -0.170764 -0.039277 0.012995
vn -0.6285 0.7778 -0.0000
vn -0.0000 -0.0000 -1.0000
vn -0.0000 -0.0000 1.0000
vn 0.6189 -0.7855 -0.0000
vn -0.4746 -0.8802 -0.0000
vn 0.9758 0.2185 -0.0000
vt 0.402039 0.149390
s 0
usemtl ImphenziaPixPal
f 10/2/7 9/2/7 13/2/7 14/2/7
f 9/2/8 11/2/8 15/2/8 13/2/8
f 12/2/9 10/2/9 14/2/9 16/2/9
f 11/2/10 12/2/10 16/2/10 15/2/10
f 14/2/11 13/2/11 15/2/11 16/2/11
f 10/2/12 12/2/12 11/2/12 9/2/12
o meatHook.004
v -0.191889 -0.027885 -0.012995
v -0.191889 -0.027885 0.012995
v -0.170764 -0.039277 -0.012995
v -0.170764 -0.039277 0.012995
v -0.187878 -0.096004 -0.012995
v -0.187878 -0.096004 0.012995
v -0.170206 -0.079832 -0.012995
v -0.170206 -0.079832 0.012995
vn 0.9999 0.0138 -0.0000
vn 0.4746 0.8802 -0.0000
vn 0.6751 -0.7377 -0.0000
vn -0.9983 -0.0588 -0.0000
vn -0.0000 -0.0000 -1.0000
vn -0.0000 -0.0000 1.0000
vt 0.402039 0.149390
s 0
usemtl ImphenziaPixPal
f 19/3/13 20/3/13 24/3/13 23/3/13
f 18/3/14 20/3/14 19/3/14 17/3/14
f 22/3/15 21/3/15 23/3/15 24/3/15
f 18/3/16 17/3/16 21/3/16 22/3/16
f 17/3/17 19/3/17 23/3/17 21/3/17
f 20/3/18 18/3/18 22/3/18 24/3/18
o meatHook.005
v -0.187878 -0.096004 -0.012995
v -0.187878 -0.096004 0.012995
v -0.170206 -0.079832 -0.012995
v -0.170206 -0.079832 0.012995
v -0.125423 -0.126586 -0.009571
v -0.125423 -0.126586 0.009571
v -0.119211 -0.103033 -0.009571
v -0.119211 -0.103033 0.009571
vn 0.4141 0.9102 -0.0000
vn 0.9669 -0.2551 -0.0000
vn -0.4398 -0.8981 -0.0000
vn 0.0469 -0.0282 -0.9985
vn 0.0469 -0.0282 0.9985
vn -0.6751 0.7377 -0.0000
vt 0.402039 0.149390
s 0
usemtl ImphenziaPixPal
f 27/4/19 28/4/19 32/4/19 31/4/19
f 30/4/20 29/4/20 31/4/20 32/4/20
f 26/4/21 25/4/21 29/4/21 30/4/21
f 25/4/22 27/4/22 31/4/22 29/4/22
f 28/4/23 26/4/23 30/4/23 32/4/23
f 26/4/24 28/4/24 27/4/24 25/4/24
o meatHook.006
v 0.145396 0.007022 -0.012995
v 0.145396 0.007022 0.012995
v 0.145396 -0.018968 -0.012995
v 0.145396 -0.018968 0.012995
v 0.166316 0.029129 -0.012995
v 0.166316 0.029129 0.012995
v 0.186491 0.016433 -0.012995
v 0.186491 0.016433 0.012995
vn 0.6527 -0.7576 -0.0000
vn -0.7263 0.6873 -0.0000
vn -0.0000 -0.0000 -1.0000
vn -0.0000 -0.0000 1.0000
vn 0.5326 0.8464 -0.0000
vn -1.0000 -0.0000 -0.0000
vt 0.402039 0.149390
s 0
usemtl ImphenziaPixPal
f 36/5/25 35/5/25 39/5/25 40/5/25
f 33/5/26 34/5/26 38/5/26 37/5/26
f 35/5/27 33/5/27 37/5/27 39/5/27
f 34/5/28 36/5/28 40/5/28 38/5/28
f 38/5/29 40/5/29 39/5/29 37/5/29
f 34/5/30 33/5/30 35/5/30 36/5/30
o meatHook.007
v 0.166316 0.029129 -0.012995
v 0.166316 0.029129 0.012995
v 0.186491 0.016433 -0.012995
v 0.186491 0.016433 0.012995
v 0.166216 0.066292 -0.012995
v 0.166216 0.066292 0.012995
v 0.189176 0.080376 -0.012995
v 0.189176 0.080376 0.012995
vn -0.0000 -0.0000 -1.0000
vn -0.5326 -0.8464 -0.0000
vn -0.0000 -0.0000 1.0000
vn 0.9991 -0.0420 -0.0000
vn -1.0000 -0.0027 -0.0000
vn -0.5229 0.8524 -0.0000
vt 0.402039 0.149390
s 0
usemtl ImphenziaPixPal
f 43/6/31 41/6/31 45/6/31 47/6/31
f 42/6/32 41/6/32 43/6/32 44/6/32
f 42/6/33 44/6/33 48/6/33 46/6/33
f 44/6/34 43/6/34 47/6/34 48/6/34
f 41/6/35 42/6/35 46/6/35 45/6/35
f 46/6/36 48/6/36 47/6/36 45/6/36
o meatHook.008
v 0.166216 0.066292 -0.012995
v 0.166216 0.066292 0.012995
v 0.189176 0.080376 -0.012995
v 0.189176 0.080376 0.012995
v 0.108545 0.105760 -0.012995
v 0.108545 0.105760 0.012995
v 0.118343 0.129832 -0.012995
v 0.118343 0.129832 0.012995
vn 0.5725 0.8199 -0.0000
vn -0.5648 -0.8253 -0.0000
vn -0.0000 -0.0000 -1.0000
vn -0.0000 -0.0000 1.0000
vn 0.5229 -0.8524 -0.0000
vn -0.9262 0.3770 -0.0000
vt 0.402039 0.149390
s 0
usemtl ImphenziaPixPal
f 52/7/37 51/7/37 55/7/37 56/7/37
f 49/7/38 50/7/38 54/7/38 53/7/38
f 51/7/39 49/7/39 53/7/39 55/7/39
f 50/7/40 52/7/40 56/7/40 54/7/40
f 50/7/41 49/7/41 51/7/41 52/7/41
f 54/7/42 56/7/42 55/7/42 53/7/42
o meatHook.009
v 0.108545 0.105760 -0.012995
v 0.108545 0.105760 0.012995
v 0.118343 0.129832 -0.012995
v 0.118343 0.129832 0.012995
v 0.062727 0.134535 -0.000000
vn 0.9262 -0.3770 -0.0000
vn -0.5318 -0.8468 -0.0000
vn -0.2194 0.0893 -0.9715
vn -0.2194 0.0893 0.9715
vn 0.0843 0.9964 -0.0000
vt 0.402039 0.149390
s 0
usemtl ImphenziaPixPal
f 58/8/43 57/8/43 59/8/43 60/8/43
f 57/8/44 58/8/44 61/8/44
f 59/8/45 57/8/45 61/8/45
f 58/8/46 60/8/46 61/8/46
f 60/8/47 59/8/47 61/8/47
