# Blender v2.78 (sub 0) OBJ File: 'toprocess3d.blend'
# www.blender.org
mtllib top.mtl
o tableRound.000_tableRound.005
v 0.346410 -0.200000 -0.025787
v 0.000000 -0.400000 -0.025787
v -0.346410 -0.200000 -0.025787
v 0.000000 0.400000 -0.025787
v 0.346410 0.200000 -0.025787
v -0.346410 0.200000 -0.025787
v 0.346410 -0.200000 0.025787
v 0.346410 0.200000 0.025787
v 0.000000 0.400000 0.025787
v 0.000000 -0.400000 0.025787
v -0.346410 0.200000 0.025787
v -0.346410 -0.200000 0.025787
vt -0.0000 23.6220
vt -13.6382 0.0000
vt 0.0000 7.8740
vt 0.0000 23.6220
vt 0.0000 7.8740
vt 13.6382 0.0000
vt 13.6382 31.4961
vt 27.2764 7.8740
vt 27.2764 23.6220
vt -11.8110 1.7780
vt 3.9370 1.7780
vt 3.9370 3.8084
vt -11.8110 3.8084
vt 11.8110 1.7780
vt 27.5591 1.7780
vt 27.5591 3.8084
vt 11.8110 3.8084
vt -3.9370 1.7780
vt -3.9370 3.8084
vt -7.8740 1.7780
vt -7.8740 3.8084
vt -23.6220 3.8084
vt -27.5591 1.7780
vt -11.8110 1.7780
vt -11.8110 3.8084
vt -27.5591 3.8084
vt 0.0000 0.0000
vn 0.6000 0.0000 -0.8000
vn -0.0000 0.0000 -1.0000
vn 0.0000 0.0000 1.0000
vn -0.5000 -0.8660 -0.0000
vn -0.5000 0.8660 0.0000
vn 0.5000 0.8660 0.0000
vn 1.0000 0.0000 0.0000
vn 0.5000 -0.8660 -0.0000
vn -0.6000 0.0000 -0.8000
vn -1.0000 0.0000 0.0000
usemtl wood
s 1
f 1/1/1 4/2/2 5/3/1
f 7/4/3 8/5/3 9/6/3
f 9/6/3 10/7/3 7/4/3
f 9/6/3 11/8/3 10/7/3
f 11/8/3 12/9/3 10/7/3
f 3/10/4 2/11/4 10/12/4
f 10/12/4 12/13/4 3/10/4
f 4/14/5 6/15/5 11/16/5
f 11/16/5 9/17/5 4/14/5
f 5/18/6 4/14/6 9/17/6
f 9/17/6 8/19/6 5/18/6
f 5/20/1 8/21/7 7/22/7
f 2/23/8 1/24/8 7/25/8
f 7/25/8 10/26/8 2/23/8
f 3/10/9 6/15/9 2/11/2
f 12/13/10 6/27/9 3/10/9
f 5/3/1 7/25/7 1/1/1
f 4/2/2 1/24/1 2/23/2
f 6/15/9 4/2/2 2/23/2
f 6/27/9 12/13/10 11/8/10
